<svg id="Layer_1" viewBox="0 0 24 24" xmlns="http://www.w3.org/2000/svg" data-name="Layer 1"><path d="m9.536 14.561-2.689 2.775-.719-.696 2.559-2.64h-8.687v-1h8.687l-2.559-2.64.719-.696 2.695 2.781c.277.277.434.654.434 1.055s-.156.778-.439 1.061zm6.464-3.561c-.552 0-1 .448-1 1s.448 1 1 1 1-.448 1-1-.448-1-1-1zm8-7.099v20.099h-16v-4.98l1-1.032v5.012h3v-20h-1.5c-.827 0-1.5.673-1.5 1.5v4.512l-1-1.032v-3.48c0-1.378 1.121-2.5 2.5-2.5h1.555c.113-.558.409-1.064.86-1.433.582-.477 1.338-.666 2.075-.518l7 1.4c1.165.233 2.01 1.264 2.01 2.452zm-1 0c0-.713-.507-1.332-1.205-1.471l-7-1.4c-.44-.086-.896.025-1.246.311-.349.286-.549.708-.549 1.16v20.5h10z"/></svg>