<svg id="Layer_1" viewBox="0 0 24 24" xmlns="http://www.w3.org/2000/svg" data-name="Layer 1"><path d="m20.529 10.233c-1.541-1.204-3.58-1.555-5.429-.924-.259-.311-.567-.573-.929-.776.425-.362.965-.533 1.346-.533 2.311 0 3.482-1.178 3.482-3.5s-1.172-3.5-3.482-3.5c-2.139 0-4.064.9-5.285 2.471-1.198 1.536-1.553 3.565-.931 5.406-.313.261-.573.575-.775.946-.358-.424-.527-.961-.527-1.34 0-2.311-1.178-3.482-3.5-3.482s-3.5 1.172-3.5 3.482c0 2.139.9 4.064 2.471 5.284 1.533 1.195 3.568 1.559 5.387.93.26.322.575.589.949.792-.422.348-.949.511-1.324.511-2.311 0-3.482 1.178-3.482 3.5s1.172 3.5 3.482 3.5c2.138 0 4.064-.9 5.284-2.471 1.195-1.531 1.551-3.551.936-5.39.315-.261.575-.579.777-.955.354.423.521.956.521 1.333 0 2.311 1.178 3.482 3.5 3.482s3.5-1.172 3.5-3.482c0-2.139-.9-4.064-2.471-5.284zm-15.831 1.955c-1.079-.838-1.698-2.188-1.698-3.705 0-1.219.266-1.482 1.5-1.482s1.5.264 1.5 1.482c0 1.225.687 2.701 2.002 3.479-.005.308.031.61.073.889-1.149.294-2.435.069-3.377-.664zm7.114-7.49c.839-1.079 2.189-1.698 3.706-1.698 1.219 0 1.482.267 1.482 1.5s-.264 1.5-1.482 1.5c-1.226 0-2.702.687-3.48 2.004-.309-.011-.612.024-.892.066-.293-1.149-.066-2.43.666-3.371zm.376 14.604c-.839 1.079-2.189 1.698-3.706 1.698-1.219 0-1.482-.267-1.482-1.5s.263-1.5 1.482-1.5 2.702-.687 3.48-2.003c.31.01.613-.024.893-.064.293 1.149.065 2.427-.667 3.369zm-.182-5.302c-1.486 0-2.006-.59-2.006-2 0-1.43.594-1.991 1.994-2 1.382.009 1.982.612 2.006 1.981-.027 1.463-.57 2.011-1.994 2.019zm7.494 3c-1.233 0-1.5-.264-1.5-1.482 0-1.226-.688-2.703-2.005-3.481.012-.306-.031-.609-.074-.888 1.15-.292 2.438-.068 3.38.664 1.079.838 1.698 2.188 1.698 3.705 0 1.219-.267 1.482-1.5 1.482z"/></svg>